<svg width="32" height="32" viewBox="0 0 32 32" fill="none" xmlns="http://www.w3.org/2000/svg">
<path fill-rule="evenodd" clip-rule="evenodd" d="M16.0001 1.18518C17.9456 1.18517 19.8721 1.56836 21.6695 2.31287C23.4669 3.05738 25.1001 4.14863 26.4758 5.52431C27.8515 6.89999 28.9427 8.53316 29.6872 10.3306C30.4318 12.128 30.815 14.0545 30.815 16C30.815 24.182 24.1821 30.8148 16.0001 30.8148C7.81815 30.8148 1.1853 24.182 1.1853 16C1.1853 7.81803 7.81815 1.18518 16.0001 1.18518ZM17.4816 17.4815H14.5186C10.8509 17.4815 7.70211 19.7028 6.34398 22.8737C8.49287 25.887 12.017 27.8519 16.0001 27.8519C19.9832 27.8519 23.5073 25.887 25.6563 22.8735C24.2982 19.7028 21.1493 17.4815 17.4816 17.4815ZM16.0001 5.62963C13.5455 5.62963 11.5557 7.61949 11.5557 10.0741C11.5557 12.5287 13.5455 14.5185 16.0001 14.5185C18.4547 14.5185 20.4445 12.5287 20.4445 10.0741C20.4445 7.61949 18.4548 5.62963 16.0001 5.62963Z" fill="#919090"/>
<rect x="16" width="1.77778" height="1.77778" fill="#919090"/>
<rect x="17.7776" width="1.77778" height="1.77778" fill="#919090"/>
<rect x="19.5557" y="1.77783" width="1.77778" height="1.77778" fill="#919090"/>
<rect x="21.3333" y="1.77783" width="1.77778" height="1.77778" fill="#919090"/>
<rect x="24.8889" y="3.55554" width="1.77778" height="1.77778" fill="#919090"/>
<rect x="23.1111" y="1.77783" width="1.77778" height="1.77778" fill="#919090"/>
<rect x="24.8889" y="5.33325" width="1.77778" height="1.77778" fill="#919090"/>
<rect x="26.6667" y="5.33325" width="1.77778" height="1.77778" fill="#919090"/>
<rect x="28.4443" y="7.11121" width="1.77778" height="1.77778" fill="#919090"/>
<rect x="28.4443" y="8.88879" width="1.77778" height="1.77778" fill="#919090"/>
<rect x="28.4443" y="10.6667" width="1.77778" height="1.77778" fill="#919090"/>
<rect x="30.2224" y="12.4445" width="1.77778" height="1.77778" fill="#919090"/>
<rect x="30.2224" y="14.2222" width="1.77778" height="1.77778" fill="#919090"/>
<rect x="30.2224" y="16" width="1.77778" height="1.77778" fill="#919090"/>
<rect x="30.2224" y="17.7778" width="1.77778" height="1.77778" fill="#919090"/>
<rect x="28.4443" y="19.5555" width="1.77778" height="1.77778" fill="#919090"/>
<rect x="28.4443" y="21.3333" width="1.77778" height="1.77778" fill="#919090"/>
<rect x="28.4443" y="23.1112" width="1.77778" height="1.77778" fill="#919090"/>
<rect x="26.6667" y="24.8888" width="1.77778" height="1.77778" fill="#919090"/>
<rect x="24.8889" y="26.6667" width="1.77778" height="1.77778" fill="#919090"/>
<rect x="21.3333" y="28.4445" width="1.77778" height="1.77778" fill="#919090"/>
<rect x="16" y="30.2222" width="1.77778" height="1.77778" fill="#919090"/>
<rect x="17.7776" y="30.2222" width="1.77778" height="1.77778" fill="#919090"/>
<rect x="19.5557" y="28.4445" width="1.77778" height="1.77778" fill="#919090"/>
<rect x="23.1111" y="28.4445" width="1.77778" height="1.77778" fill="#919090"/>
<rect y="16" width="1.77778" height="1.77778" fill="#919090"/>
<rect y="17.7778" width="1.77778" height="1.77778" fill="#919090"/>
<rect x="1.77759" y="19.5555" width="1.77778" height="1.77778" fill="#919090"/>
<rect x="1.77759" y="21.3333" width="1.77778" height="1.77778" fill="#919090"/>
<rect x="1.77759" y="23.1112" width="1.77778" height="1.77778" fill="#919090"/>
<rect x="3.55566" y="24.8888" width="1.77778" height="1.77778" fill="#919090"/>
<rect x="5.33325" y="26.6667" width="1.77778" height="1.77778" fill="#919090"/>
<rect x="8.88892" y="28.4445" width="1.77778" height="1.77778" fill="#919090"/>
<rect x="7.11108" y="28.4445" width="1.77778" height="1.77778" fill="#919090"/>
<rect x="10.6667" y="28.4445" width="1.77778" height="1.77778" fill="#919090"/>
<rect x="12.4443" y="30.2222" width="1.77778" height="1.77778" fill="#919090"/>
<rect x="14.2224" y="30.2222" width="1.77778" height="1.77778" fill="#919090"/>
<rect y="14.2222" width="1.77778" height="1.77778" fill="#919090"/>
<rect x="8.88892" y="1.77783" width="1.77778" height="1.77778" fill="#919090"/>
<rect x="5.33325" y="3.55554" width="1.77778" height="1.77778" fill="#919090"/>
<rect x="3.55566" y="5.33325" width="1.77778" height="1.77778" fill="#919090"/>
<rect x="1.77759" y="7.11121" width="1.77778" height="1.77778" fill="#919090"/>
<rect x="1.77759" y="8.88879" width="1.77778" height="1.77778" fill="#919090"/>
<rect x="1.77759" y="10.6667" width="1.77778" height="1.77778" fill="#919090"/>
<rect y="12.4445" width="1.77778" height="1.77778" fill="#919090"/>
<rect x="7.11108" y="1.77783" width="1.77778" height="1.77778" fill="#919090"/>
<rect x="10.6667" y="1.77783" width="1.77778" height="1.77778" fill="#919090"/>
<rect x="12.4443" width="1.77778" height="1.77778" fill="#919090"/>
<rect x="14.2224" width="1.77778" height="1.77778" fill="#919090"/>
<rect x="14.2224" y="16" width="1.77778" height="1.77778" fill="#919090"/>
<rect x="16" y="16" width="1.77778" height="1.77778" fill="#919090"/>
<rect x="8.88892" y="17.7778" width="1.77778" height="1.77778" fill="#919090"/>
<rect x="7.11108" y="19.5555" width="1.77778" height="1.77778" fill="#919090"/>
<rect x="5.33325" y="21.3333" width="1.77778" height="1.77778" fill="#919090"/>
<rect x="10.6667" y="17.7778" width="1.77778" height="1.77778" fill="#919090"/>
<rect x="12.4443" y="16" width="1.77778" height="1.77778" fill="#919090"/>
<rect x="7.11108" y="23.1112" width="1.77778" height="1.77778" fill="#919090"/>
<rect x="8.88892" y="24.8888" width="1.77778" height="1.77778" fill="#919090"/>
<rect x="12.4443" y="26.6667" width="1.77778" height="1.77778" fill="#919090"/>
<rect x="10.6667" y="26.6667" width="1.77778" height="1.77778" fill="#919090"/>
<rect x="14.2224" y="26.6667" width="1.77778" height="1.77778" fill="#919090"/>
<rect x="16" y="26.6667" width="1.77778" height="1.77778" fill="#919090"/>
<rect x="23.1111" y="23.1112" width="1.77778" height="1.77778" fill="#919090"/>
<rect x="21.3333" y="24.8888" width="1.77778" height="1.77778" fill="#919090"/>
<rect x="17.7776" y="26.6667" width="1.77778" height="1.77778" fill="#919090"/>
<rect x="19.5557" y="26.6667" width="1.77778" height="1.77778" fill="#919090"/>
<rect x="24.8889" y="21.3333" width="1.77778" height="1.77778" fill="#919090"/>
<rect x="21.3333" y="17.7778" width="1.77778" height="1.77778" fill="#919090"/>
<rect x="23.1111" y="19.5555" width="1.77778" height="1.77778" fill="#919090"/>
<rect x="17.7776" y="16" width="1.77778" height="1.77778" fill="#919090"/>
<rect x="19.5557" y="17.7778" width="1.77778" height="1.77778" fill="#919090"/>
<rect x="12.4443" y="5.33325" width="1.77778" height="1.77778" fill="#919090"/>
<rect x="10.6667" y="7.11121" width="1.77778" height="1.77778" fill="#919090"/>
<rect x="10.6667" y="8.88879" width="1.77778" height="1.77778" fill="#919090"/>
<rect x="14.2224" y="5.33325" width="1.77778" height="1.77778" fill="#919090"/>
<rect x="16" y="5.33325" width="1.77778" height="1.77778" fill="#919090"/>
<rect x="10.6667" y="10.6667" width="1.77778" height="1.77778" fill="#919090"/>
<rect x="12.4443" y="12.4445" width="1.77778" height="1.77778" fill="#919090"/>
<rect x="14.2224" y="14.2222" width="1.77778" height="1.77778" fill="#919090"/>
<rect x="16" y="14.2222" width="1.77778" height="1.77778" fill="#919090"/>
<rect x="19.5557" y="10.6667" width="1.77778" height="1.77778" fill="#919090"/>
<rect x="17.7776" y="12.4445" width="1.77778" height="1.77778" fill="#919090"/>
<rect x="19.5557" y="8.88879" width="1.77778" height="1.77778" fill="#919090"/>
<rect x="17.7776" y="5.33325" width="1.77778" height="1.77778" fill="#919090"/>
<rect x="19.5557" y="7.11121" width="1.77778" height="1.77778" fill="#919090"/>
</svg>
