<svg width="27" height="26" viewBox="0 0 27 26" fill="none" xmlns="http://www.w3.org/2000/svg">
<path d="M22.7503 8.46285H17.3026V2.82054C17.3019 2.07256 17.0147 1.35542 16.504 0.826512C15.9933 0.297604 15.3009 0.000136516 14.5787 -0.000610352H12.642C12.2055 0.0013092 11.784 0.165271 11.4541 0.46152C11.1243 0.757769 10.9079 1.16667 10.8443 1.61403L10.0771 7.17829L6.8293 12.2244H0.959351V25.3898H20.0265C21.7114 25.3873 23.3266 24.693 24.518 23.459C25.7094 22.225 26.3798 20.5522 26.3822 18.8071V12.2244C26.381 11.2272 25.9979 10.2711 25.3171 9.56596C24.6363 8.8608 23.7132 8.4641 22.7503 8.46285ZM6.4071 23.509H2.77527V14.1052H6.4071V23.509ZM24.5663 18.8071C24.5648 20.0537 24.0861 21.2487 23.235 22.1302C22.3839 23.0117 21.23 23.5075 20.0265 23.509H8.22301V13.4497L11.8167 7.86665L12.643 1.88016H14.5787C14.8195 1.88016 15.0505 1.97924 15.2207 2.15559C15.391 2.33195 15.4867 2.57114 15.4867 2.82054V10.3436H22.7503C23.2317 10.3444 23.6932 10.5428 24.0336 10.8953C24.374 11.2479 24.5655 11.7258 24.5663 12.2244V18.8071Z" fill="black"/>
</svg>
