<svg width="27" height="26" viewBox="0 0 27 26" fill="none" xmlns="http://www.w3.org/2000/svg">
<path d="M22.7503 17.5371H17.3026V23.1795C17.3019 23.9274 17.0147 24.6446 16.504 25.1735C15.9933 25.7024 15.3009 25.9999 14.5787 26.0006H12.642C12.2055 25.9987 11.784 25.8347 11.4541 25.5385C11.1243 25.2422 10.9079 24.8333 10.8443 24.386L10.0771 18.8217L6.8293 13.7756H0.959351V0.61022H20.0265C21.7114 0.612709 23.3266 1.30704 24.518 2.54099C25.7094 3.77495 26.3798 5.44784 26.3822 7.19291V13.7756C26.381 14.7728 25.9979 15.7289 25.3171 16.434C24.6363 17.1392 23.7132 17.5359 22.7503 17.5371ZM6.4071 2.49099H2.77527V11.8948H6.4071V2.49099ZM24.5663 7.19291C24.5648 5.94634 24.0861 4.75126 23.235 3.8698C22.3839 2.98834 21.23 2.49248 20.0265 2.49099H8.22301V12.5503L11.8167 18.1334L12.643 24.1198H14.5787C14.8195 24.1198 15.0505 24.0208 15.2207 23.8444C15.391 23.6681 15.4867 23.4289 15.4867 23.1795V15.6564H22.7503C23.2317 15.6556 23.6932 15.4572 24.0336 15.1047C24.374 14.7521 24.5655 14.2742 24.5663 13.7756V7.19291Z" fill="black"/>
</svg>
